<svg xmlns="http://www.w3.org/2000/svg" viewBox="0 0 690 380">
  <defs>
    <linearGradient id="partFill" x1="0" x2="1" y1="0" y2="1">
      <stop offset="0" stop-color="#fbfdff"/>
      <stop offset="1" stop-color="#e8f0f6"/>
    </linearGradient>
    <filter id="soft" x="-10%" y="-10%" width="120%" height="120%">
      <feDropShadow dx="0" dy="1" stdDeviation="1" flood-color="#d6e2ea" flood-opacity=".75"/>
    </filter>
  </defs>
  <rect width="690" height="380" fill="#e8f0f6"/>
  <path d="M152 66 H460 V184 H337 V326 H152 Z" fill="url(#partFill)" stroke="#627b8e" stroke-width="2"/>

  <g fill="none" stroke="#8ea1ad" stroke-width="1" stroke-dasharray="4 4">
    <line x1="152" y1="40" x2="460" y2="40"/>
    <line x1="152" y1="40" x2="152" y2="66"/>
    <line x1="460" y1="40" x2="460" y2="66"/>
    <line x1="118" y1="66" x2="118" y2="326"/>
    <line x1="118" y1="66" x2="152" y2="66"/>
    <line x1="118" y1="326" x2="152" y2="326"/>
    <line x1="492" y1="66" x2="492" y2="184"/>
    <line x1="460" y1="66" x2="492" y2="66"/>
    <line x1="460" y1="184" x2="492" y2="184"/>
    <line x1="337" y1="184" x2="460" y2="184"/>
    <line x1="337" y1="184" x2="337" y2="326"/>
    <line x1="152" y1="352" x2="337" y2="352"/>
    <line x1="152" y1="326" x2="152" y2="352"/>
    <line x1="337" y1="326" x2="337" y2="352"/>
  </g>

  <g font-family="Arial, sans-serif" font-size="16" fill="#6a8292" text-anchor="middle" dominant-baseline="middle" filter="url(#soft)">
    <rect x="102" y="147" width="34" height="34" rx="8" fill="#f7fbfd" stroke="#cad8e3"/>
    <text x="119" y="164">A</text>
    <rect x="294" y="84" width="34" height="34" rx="8" fill="#f7fbfd" stroke="#cad8e3"/>
    <text x="311" y="101">B</text>
    <rect x="522" y="111" width="34" height="34" rx="8" fill="#f7fbfd" stroke="#cad8e3"/>
    <text x="539" y="128">C</text>
    <rect x="378" y="147" width="34" height="34" rx="8" fill="#f7fbfd" stroke="#cad8e3"/>
    <text x="395" y="164">D</text>
    <rect x="292" y="253" width="34" height="34" rx="8" fill="#f7fbfd" stroke="#cad8e3"/>
    <text x="309" y="270">E</text>
    <rect x="220" y="297" width="34" height="34" rx="8" fill="#f7fbfd" stroke="#cad8e3"/>
    <text x="237" y="314">F</text>
  </g>

  <text x="585" y="224" fill="#536b7a" font-family="Arial, sans-serif" font-size="14" text-anchor="middle">Кількість</text>
</svg>
